# xmcd
#
# Track frame offsets: 
#        150
#        16785
#        34285
#        52500
#        71370
#        97657
#        125652
#        141440
#
# Disc length: 2092 seconds
#
# Revision: 3
# Processed by: cddbd v1.5.2PL0 Copyright (c) Steve Scherf et al.
# Submitted via: ExactAudioCopyFreeDBPlugin 1.0
#
DISCID=5e082a08
DTITLE=Carl Carlton - Carl Carlton
DYEAR=1981
DGENRE=Funk
TTITLE0=Sexy Lady
TTITLE1=Let Me Love You 'Til The Morning Comes
TTITLE2=Don't You Wanna Make Love
TTITLE3=This Feeling's Rated X-Tra
TTITLE4=She's A Bad Mama Jama (She's Built, She's Stacked)
TTITLE5=I've Got That Boogie Fever
TTITLE6=I Think It's Gonna Be Alright
TTITLE7=Fighting In The Name Of Love
EXTD=
EXTT0=
EXTT1=
EXTT2=
EXTT3=
EXTT4=
EXTT5=
EXTT6=
EXTT7=
PLAYORDER=
